<svg xmlns="http://www.w3.org/2000/svg" height="40" viewBox="0 -960 960 960" width="40"><path d="M308-64.334q-18.575 0-29.454-11.975-10.879-11.975-10.879-28.366v-129.658h437.999v129.658q0 16.391-11.4 28.366-11.4 11.975-27.933 11.975H308ZM798.333-643v114.667q0 3-.667 9.5t-.333 9.5l-32.667 159.666q-6.5 25.1-25.183 40.55-18.683 15.45-43.483 15.45H265.847q-26.139 0-45.326-15.333-19.187-15.334-24.187-40.667l-33.042-159.857q-.291-2.94-.625-9.405-.333-6.464-.333-9.404v-236.334q0-43.283 30.346-74.308Q223.025-870 267.333-870h326.668q43.728 0 75.03 31.025t31.302 74.308V-674q5.667-11.517 16.44-18.092 10.772-6.575 25.683-6.575 23.06 0 39.468 16.075 16.409 16.075 16.409 39.592ZM295-399.666h371l26.667-133.001v-22.667h-99v-208H269v230.667l26 133.001Zm37.334-155.668h197.999V-686H332.334v130.666ZM480-582Z" fill='white'/></svg>